<svg width="60" height="60" viewBox="0 0 60 60" fill="none" xmlns="http://www.w3.org/2000/svg">
<circle cx="30" cy="30" r="30" fill="#FFE812"/>
<path d="M30.4285 15.0267C20.8128 15.0267 13.0178 21.1729 13.0178 28.7544C13.0178 33.656 16.2766 37.957 21.1788 40.3856C20.9121 41.3054 19.465 46.3026 19.4074 46.6952C19.4074 46.6952 19.3727 46.9901 19.5637 47.1026C19.7548 47.2151 19.9794 47.1277 19.9794 47.1277C20.5272 47.0512 26.3315 42.9741 27.3361 42.2661C28.3398 42.4083 29.3732 42.4821 30.4285 42.4821C40.0443 42.4821 47.8393 36.3361 47.8393 28.7544C47.8393 21.1729 40.0443 15.0267 30.4285 15.0267Z" fill="black"/>
<path d="M20.8024 33.5465C20.2484 33.5465 19.7979 33.1163 19.7979 32.5873V26.6199H18.2306C17.687 26.6199 17.2449 26.1786 17.2449 25.6364C17.2449 25.0941 17.6872 24.6528 18.2306 24.6528H23.3741C23.9177 24.6528 24.3598 25.0941 24.3598 25.6364C24.3598 26.1786 23.9175 26.6199 23.3741 26.6199H21.8068V32.5873C21.8068 33.1163 21.3563 33.5465 20.8024 33.5465ZM29.6102 33.5335C29.1913 33.5335 28.8709 33.3634 28.7743 33.0898L28.2769 31.7877L25.214 31.7875L24.7162 33.0905C24.62 33.3635 24.2997 33.5335 23.8809 33.5335C23.6605 33.5337 23.4428 33.4864 23.2424 33.3949C22.9655 33.2671 22.6993 32.9159 23.0043 31.9685L25.407 25.6444C25.5762 25.1634 26.0904 24.6679 26.7446 24.653C27.4007 24.6677 27.9148 25.1634 28.0844 25.6454L30.4861 31.9667C30.7917 32.9162 30.5256 33.2676 30.2487 33.395C30.0482 33.4864 29.8305 33.5336 29.6102 33.5335C29.6102 33.5335 29.61 33.5335 29.6102 33.5335ZM27.7487 30.0085L26.7454 27.1583L25.7421 30.0085H27.7487ZM32.1026 33.4C31.5717 33.4 31.14 32.9869 31.14 32.4793V25.6573C31.14 25.1033 31.6 24.6528 32.1654 24.6528C32.7307 24.6528 33.1907 25.1033 33.1907 25.6573V31.5585H35.3252C35.8561 31.5585 36.2878 31.9717 36.2878 32.4793C36.2878 32.9869 35.8561 33.4 35.3252 33.4H32.1026ZM37.683 33.5335C37.1291 33.5335 36.6786 33.083 36.6786 32.529V25.6573C36.6786 25.1033 37.1291 24.6528 37.683 24.6528C38.237 24.6528 38.6875 25.1033 38.6875 25.6573V27.8162L41.49 25.0138C41.6341 24.8696 41.8322 24.7903 42.0471 24.7903C42.2979 24.7903 42.5497 24.8984 42.7383 25.0869C42.9143 25.2627 43.0193 25.4889 43.0337 25.7238C43.0482 25.9606 42.9694 26.1778 42.812 26.3353L40.523 28.624L42.9955 31.8995C43.0753 32.0046 43.1335 32.1245 43.1666 32.2523C43.1997 32.38 43.2071 32.5131 43.1883 32.6437C43.1704 32.7744 43.1268 32.9003 43.0599 33.014C42.993 33.1277 42.9042 33.227 42.7986 33.3061C42.6249 33.4382 42.4126 33.5094 42.1944 33.5089C42.0388 33.5096 41.8852 33.4738 41.7458 33.4045C41.6065 33.3352 41.4853 33.2342 41.392 33.1096L39.0364 29.9884L38.6878 30.3369V32.5285C38.6875 32.7949 38.5816 33.0503 38.3932 33.2387C38.2048 33.4271 37.9495 33.5331 37.683 33.5335Z" fill="#FFE812"/>
</svg>
