<svg width="60" height="60" viewBox="0 0 60 60" fill="none" xmlns="http://www.w3.org/2000/svg">
<circle cx="30" cy="30" r="30" fill="white"/>
<path d="M21.231 33.2857L20.1346 37.3789L16.127 37.4637C14.9293 35.2423 14.25 32.7007 14.25 29.9998C14.25 27.3881 14.8852 24.9252 16.011 22.7566H16.0119L19.5798 23.4107L21.1427 26.9571C20.8156 27.9108 20.6373 28.9346 20.6373 29.9998C20.6374 31.156 20.8468 32.2637 21.231 33.2857Z" fill="#FBBB00"/>
<path d="M45.4754 27.0571C45.6563 28.0099 45.7506 28.9938 45.7506 29.9994C45.7506 31.127 45.632 32.2269 45.4062 33.2879C44.6395 36.8983 42.6361 40.0508 39.8609 42.2818L39.86 42.2809L35.3661 42.0516L34.7301 38.0812C36.5716 37.0012 38.0107 35.3111 38.7688 33.2879H30.3469V27.0571H38.8917H45.4754Z" fill="#518EF8"/>
<path d="M39.8587 42.282L39.8595 42.2828C37.1604 44.4523 33.7317 45.7504 29.9994 45.7504C24.0014 45.7504 18.7867 42.398 16.1265 37.4644L21.2305 33.2864C22.5606 36.8361 25.9849 39.3631 29.9994 39.3631C31.7249 39.3631 33.3415 38.8966 34.7287 38.0823L39.8587 42.282Z" fill="#28B446"/>
<path d="M40.0523 17.8759L34.95 22.0531C33.5143 21.1557 31.8173 20.6373 29.9991 20.6373C25.8938 20.6373 22.4054 23.2802 21.142 26.9572L16.0111 22.7567H16.0103C18.6315 17.7029 23.912 14.25 29.9991 14.25C33.8207 14.25 37.3246 15.6113 40.0523 17.8759Z" fill="#F14336"/>
</svg>
